<?xml version="1.0" encoding="UTF-8" standalone="no"?>
<svg
   xmlns:dc="http://purl.org/dc/elements/1.1/"
   xmlns:cc="http://creativecommons.org/ns#"
   xmlns:rdf="http://www.w3.org/1999/02/22-rdf-syntax-ns#"
   xmlns:svg="http://www.w3.org/2000/svg"
   xmlns="http://www.w3.org/2000/svg"
   viewBox="0 0 492 110"
   version="1.1"
   id="svg15">
  <metadata
     id="metadata21">
    <rdf:RDF>
      <cc:Work
         rdf:about="">
        <dc:format>image/svg+xml</dc:format>
        <dc:type
           rdf:resource="http://purl.org/dc/dcmitype/StillImage" />
        <dc:title></dc:title>
      </cc:Work>
    </rdf:RDF>
  </metadata>
  <defs
     id="defs19" />
  <path
     d="M154.3 17.5a19.6 19.6 0 0 0-13.8-13.8C128.4.4 79.7.4 79.7.4S31 .5 18.9 3.8A19.6 19.6 0 0 0 5.1 17.6C1.44 39.1.02 71.86 5.2 92.5A19.6 19.6 0 0 0 19 106.3c12.1 3.3 60.8 3.3 60.8 3.3s48.7 0 60.8-3.3a19.6 19.6 0 0 0 13.8-13.8c3.86-21.53 5.05-54.27-.1-75z"
     fill="red"
     id="path2" />
  <path
     fill="#fff"
     d="M64.2 78.4L104.6 55 64.2 31.6z"
     id="path4" />
  <g
     aria-label="YouBats"
     transform="scale(0.78933813,1.2668842)"
     style="font-style:normal;font-variant:normal;font-weight:normal;font-stretch:normal;font-size:100.05332947px;line-height:1.25;font-family:sans-serif;-inkscape-font-specification:'sans-serif, Normal';font-variant-ligatures:normal;font-variant-caps:normal;font-variant-numeric:normal;font-feature-settings:normal;text-align:start;letter-spacing:0px;word-spacing:0px;writing-mode:lr-tb;text-anchor:start;fill:#282828;fill-opacity:1;stroke:#282828;stroke-width:2.50134063;stroke-opacity:1"
     id="text3728">
    <path
       d="m 220.75542,5.8007222 h 10.60135 L 251.5824,35.797179 271.66146,5.8007222 h 10.60135 l -25.795,38.2039568 V 78.73999 h -9.91739 V 44.004679 Z"
       style=""
       id="path3828" />
    <path
       d="m 299.41063,30.325513 q -7.23042,0 -11.43188,5.667083 -4.20146,5.618229 -4.20146,15.437916 0,9.819687 4.15261,15.48677 4.20145,5.618229 11.48073,5.618229 7.18156,0 11.38302,-5.667083 4.20145,-5.667083 4.20145,-15.437916 0,-9.721979 -4.20145,-15.389062 -4.20146,-5.715937 -11.38302,-5.715937 z m 0,-7.62125 q 11.725,0 18.41802,7.62125 6.69302,7.62125 6.69302,21.104999 0,13.434895 -6.69302,21.104999 -6.69302,7.62125 -18.41802,7.62125 -11.77386,0 -18.46688,-7.62125 -6.64417,-7.670104 -6.64417,-21.104999 0,-13.483749 6.64417,-21.104999 6.69302,-7.62125 18.46688,-7.62125 z"
       style=""
       id="path3830" />
    <path
       d="M 338.49396,57.146449 V 24.023326 h 8.98916 V 56.80447 q 0,7.767812 3.02896,11.676146 3.02896,3.859479 9.08688,3.859479 7.27927,0 11.48072,-4.641146 Q 375.33,63.057803 375.33,55.04572 V 24.023326 h 8.98916 V 78.73999 H 375.33 v -8.402916 q -3.27323,4.983125 -7.62125,7.425833 -4.29917,2.393854 -10.01511,2.393854 -9.42885,0 -14.31427,-5.8625 -4.88541,-5.8625 -4.88541,-17.147812 z m 22.61947,-34.442186 z"
       style=""
       id="path3832" />
    <path
       d="m 413.09426,43.906971 v 26.723228 h 15.82875 q 7.96323,0 11.77386,-3.273229 3.85948,-3.322083 3.85948,-10.112812 0,-6.839583 -3.85948,-10.063958 -3.81063,-3.273229 -11.77386,-3.273229 z m 0,-29.996457 v 21.984374 h 14.6074 q 7.23042,0 10.74792,-2.686979 3.56635,-2.735834 3.56635,-8.305208 0,-5.520521 -3.56635,-8.256354 -3.5175,-2.735833 -10.74792,-2.735833 z m -9.86854,-8.1097918 h 25.20875 q 11.28531,0 17.39209,4.6899998 6.10677,4.69 6.10677,13.337187 0,6.693021 -3.12667,10.650208 -3.12667,3.957187 -9.18458,4.934271 7.27927,1.563333 11.28531,6.546458 4.05489,4.93427 4.05489,12.360103 0,9.770833 -6.64416,15.095937 -6.64417,5.325104 -18.90656,5.325104 h -26.18584 z"
       style=""
       id="path3834" />
    <path
       d="m 496.34177,51.235095 q -10.89448,0 -15.09594,2.491563 -4.20146,2.491562 -4.20146,8.500625 0,4.787708 3.12667,7.621249 3.17552,2.784688 8.59833,2.784688 7.47469,0 11.96927,-5.27625 4.54344,-5.325104 4.54344,-14.118854 v -2.003021 z m 17.92947,-3.712916 V 78.73999 h -8.98916 v -8.305208 q -3.07781,4.983125 -7.67011,7.376979 -4.59229,2.345 -11.23645,2.345 -8.40292,0 -13.38604,-4.69 -4.93428,-4.738854 -4.93428,-12.653228 0,-9.233438 6.15563,-13.923437 6.20448,-4.69 18.46687,-4.69 h 12.60438 v -0.879375 q 0,-6.204479 -4.10375,-9.575417 -4.0549,-3.419791 -11.43188,-3.419791 -4.69,0 -9.13572,1.123646 -4.44573,1.123646 -8.54948,3.370937 v -8.305208 q 4.93427,-1.905312 9.57541,-2.833541 4.64115,-0.977084 9.03802,-0.977084 11.87157,0 17.73406,6.155625 5.8625,6.155625 5.8625,18.662291 z"
       style=""
       id="path3836" />
    <path
       d="M 541.67844,8.4877013 V 24.023326 h 18.51572 v 6.986145 h -18.51572 v 29.703332 q 0,6.693021 1.8076,8.598333 1.85646,1.905313 7.47469,1.905313 h 9.23343 v 7.523541 h -9.23343 q -10.40594,0 -14.36313,-3.859479 -3.95718,-3.908333 -3.95718,-14.167708 V 31.009471 h -6.59532 v -6.986145 h 6.59532 V 8.4877013 Z"
       style=""
       id="path3838" />
    <path
       d="m 606.89874,25.635513 v 8.500625 q -3.81062,-1.954167 -7.91437,-2.93125 -4.10375,-0.977083 -8.50063,-0.977083 -6.69302,0 -10.06396,2.051875 -3.32208,2.051874 -3.32208,6.155624 0,3.126667 2.39385,4.934271 2.39386,1.75875 9.62427,3.370937 l 3.07782,0.683959 q 9.57541,2.051875 13.58145,5.813645 4.0549,3.712917 4.0549,10.405937 0,7.62125 -6.05792,12.066979 -6.00906,4.445729 -16.56156,4.445729 -4.39687,0 -9.18458,-0.879375 -4.73886,-0.830521 -10.01511,-2.540417 v -9.282291 q 4.98313,2.589271 9.81969,3.908333 4.83656,1.270209 9.57542,1.270209 6.35104,0 9.77083,-2.149584 3.41979,-2.198437 3.41979,-6.155624 0,-3.664063 -2.49156,-5.618229 -2.44271,-1.954167 -10.79677,-3.761771 L 584.18155,54.2152 q -8.35406,-1.75875 -12.06698,-5.373959 -3.71291,-3.664062 -3.71291,-10.015103 0,-7.718958 5.47166,-11.920417 5.47167,-4.201458 15.53563,-4.201458 4.98312,0 9.38,0.732813 4.39687,0.732812 8.10979,2.198437 z"
       style=""
       id="path3840" />
  </g>
</svg>
